<svg xmlns="http://www.w3.org/2000/svg" width="40" height="40" viewBox="0 0 40 40" fill="none"><rect width="40" height="40" rx="20" fill="#e9bd8c"/><path d="M25.5013 21.7466L22.5013 20.2466C22.4127 20.2025 22.314 20.1826 22.2153 20.1888C22.1165 20.1951 22.0211 20.2273 21.9388 20.2822L20.4688 21.2619C19.7246 20.8809 19.1192 20.2754 18.7382 19.5312L19.7188 18.0622C19.7737 17.9798 19.8059 17.8845 19.8122 17.7857C19.8184 17.687 19.7985 17.5883 19.7544 17.4997L18.2544 14.4997C18.2078 14.4058 18.1359 14.3269 18.0467 14.2717C17.9576 14.2165 17.8549 14.1874 17.7501 14.1875C16.8052 14.1875 15.8991 14.5628 15.231 15.2309C14.5629 15.899 14.1876 16.8052 14.1876 17.75C14.19 19.8875 15.0403 21.9368 16.5517 23.4483C18.0632 24.9598 20.1125 25.81 22.2501 25.8125C23.1949 25.8125 24.101 25.4372 24.7691 24.7691C25.4372 24.101 25.8126 23.1948 25.8126 22.25C25.8126 22.1454 25.7835 22.043 25.7285 21.954C25.6735 21.8651 25.5948 21.7933 25.5013 21.7466ZM22.2501 24.6875C20.4108 24.6853 18.6475 23.9536 17.347 22.6531C16.0464 21.3525 15.3148 19.5893 15.3126 17.75C15.3126 17.1617 15.5254 16.5933 15.9117 16.1496C16.298 15.7059 16.8317 15.4169 17.4144 15.3359L18.6013 17.7097L17.6272 19.1703C17.5761 19.2473 17.5447 19.3358 17.5358 19.4279C17.527 19.5199 17.541 19.6128 17.5766 19.6981C18.0939 20.9279 19.0722 21.9062 20.3019 22.4234C20.3873 22.459 20.4801 22.473 20.5722 22.4642C20.6642 22.4554 20.7527 22.424 20.8297 22.3728L22.2904 21.3987L24.6641 22.5856C24.5831 23.1683 24.2941 23.702 23.8504 24.0883C23.4068 24.4746 22.8383 24.6874 22.2501 24.6875ZM20.0001 10.4375C18.3424 10.4372 16.713 10.8677 15.272 11.687C13.8309 12.5063 12.6275 13.6862 11.7799 15.1108C10.9324 16.5354 10.4697 18.156 10.4374 19.8133C10.405 21.4707 10.8041 23.108 11.5954 24.5647L10.506 27.8337C10.4289 28.065 10.4177 28.3132 10.4737 28.5504C10.5297 28.7877 10.6506 29.0047 10.823 29.1771C10.9954 29.3494 11.2124 29.4704 11.4496 29.5264C11.6869 29.5824 11.935 29.5712 12.1663 29.4941L15.4354 28.4047C16.715 29.0991 18.1364 29.4922 19.591 29.5539C21.0457 29.6156 22.4952 29.3444 23.8291 28.7608C25.163 28.1772 26.346 27.2968 27.288 26.1866C28.2299 25.0764 28.9059 23.7657 29.2644 22.3546C29.6229 20.9435 29.6545 19.4691 29.3567 18.044C29.0588 16.6188 28.4395 15.2804 27.5459 14.131C26.6523 12.9815 25.508 12.0512 24.2003 11.4112C22.8926 10.7711 21.456 10.4381 20.0001 10.4375ZM20.0001 28.4375C18.5169 28.4379 17.0598 28.0472 15.7757 27.305C15.6901 27.2558 15.5932 27.2296 15.4944 27.2291C15.4339 27.2294 15.3738 27.2392 15.3163 27.2581L11.811 28.4263C11.778 28.4373 11.7425 28.4389 11.7086 28.4309C11.6747 28.4229 11.6437 28.4056 11.6191 28.381C11.5945 28.3563 11.5772 28.3253 11.5692 28.2914C11.5612 28.2576 11.5628 28.2221 11.5738 28.1891L12.7419 24.6875C12.7672 24.6118 12.7761 24.5317 12.768 24.4523C12.7599 24.3729 12.7351 24.2962 12.6951 24.2272C11.7644 22.6195 11.3903 20.7495 11.6308 18.9075C11.8713 17.0654 12.7131 15.3543 14.0254 14.0395C15.3377 12.7246 17.0473 11.8797 18.8889 11.6356C20.7305 11.3916 22.6011 11.7621 24.2106 12.6898C25.8201 13.6174 27.0784 15.0503 27.7904 16.7661C28.5024 18.4819 28.6283 20.3848 28.1484 22.1794C27.6686 23.9741 26.6099 25.5602 25.1366 26.6917C23.6633 27.8232 21.8577 28.4369 20.0001 28.4375Z" fill="#000000"/></svg>